<svg width="122" height="29" viewBox="0 0 122 29" fill="none" xmlns="http://www.w3.org/2000/svg">
<path d="M61.0445 0C53.3004 0 47 6.30043 47 14.0445C47 21.7885 53.3004 28.0889 61.0445 28.0889C68.7885 28.0889 75.0889 21.7885 75.0889 14.0445C75.0889 6.30043 68.7885 0 61.0445 0ZM67.5265 15.1248H62.1248V20.5265H59.9641V15.1248H54.5624V12.9641H59.9641V7.56241H62.1248V12.9641H67.5265V15.1248Z" fill="#04100b"/>
<path d="M14.0445 0C6.30043 0 0 6.30043 0 14.0445C0 21.7885 6.30043 28.0889 14.0445 28.0889C21.7885 28.0889 28.0889 21.7885 28.0889 14.0445C28.0889 6.30043 21.7885 0 14.0445 0ZM19.0877 17.0708C18.4543 17.8432 17.3051 19.0782 14.6515 20.8797C14.4725 21.0022 14.2607 21.0678 14.0438 21.0678C13.8269 21.0678 13.6151 21.0022 13.4361 20.8797C10.7825 19.0782 9.63329 17.8412 8.99994 17.0708C7.64951 15.4253 7.00266 13.7352 7.02156 11.9054C7.04249 9.80818 8.72445 8.10191 10.771 8.10191C12.1485 8.10191 13.1343 8.81966 13.7487 9.48002C13.7866 9.52007 13.8322 9.55197 13.8829 9.57378C13.9335 9.59558 13.988 9.60683 14.0431 9.60683C14.0982 9.60683 14.1528 9.59558 14.2034 9.57378C14.254 9.55197 14.2997 9.52007 14.3375 9.48002C14.9526 8.81966 15.9378 8.10191 17.3152 8.10191C19.3618 8.10191 21.0438 9.80818 21.0647 11.9054C21.0849 13.7352 20.4374 15.4253 19.0877 17.0708Z" fill="#04100b"/>
<path d="M107.504 1C100.058 1 94 7.05803 94 14.5043C94 21.9506 100.058 28.0086 107.504 28.0086C114.951 28.0086 121.009 21.9506 121.009 14.5043C121.009 7.05803 114.951 1 107.504 1ZM107.504 6.53676C107.852 6.53676 108.191 6.63973 108.48 6.83263C108.768 7.02553 108.993 7.29971 109.126 7.6205C109.259 7.94129 109.294 8.29427 109.226 8.63482C109.158 8.97536 108.991 9.28817 108.746 9.53369C108.5 9.77921 108.187 9.94641 107.847 10.0141C107.506 10.0819 107.153 10.0471 106.832 9.91425C106.512 9.78137 106.238 9.55636 106.045 9.26766C105.852 8.97896 105.749 8.63954 105.749 8.29232C105.749 7.82672 105.934 7.38019 106.263 7.05096C106.592 6.72172 107.039 6.53676 107.504 6.53676ZM110.745 21.7966H104.803C104.517 21.7966 104.242 21.6828 104.04 21.4802C103.837 21.2776 103.723 21.0028 103.723 20.7163C103.723 20.4298 103.837 20.155 104.04 19.9524C104.242 19.7498 104.517 19.6359 104.803 19.6359H106.694V13.694H105.614C105.327 13.694 105.052 13.5802 104.85 13.3776C104.647 13.175 104.533 12.9002 104.533 12.6137C104.533 12.3272 104.647 12.0524 104.85 11.8498C105.052 11.6472 105.327 11.5334 105.614 11.5334H107.774C108.061 11.5334 108.336 11.6472 108.538 11.8498C108.741 12.0524 108.855 12.3272 108.855 12.6137V19.6359H110.745C111.032 19.6359 111.307 19.7498 111.509 19.9524C111.712 20.155 111.826 20.4298 111.826 20.7163C111.826 21.0028 111.712 21.2776 111.509 21.4802C111.307 21.6828 111.032 21.7966 110.745 21.7966Z" fill="#04100b"/>
</svg>
