<svg width="39" height="38" viewBox="0 0 39 38" fill="none" xmlns="http://www.w3.org/2000/svg">
<path d="M36.1604 0L28.785 1.46382L33.9271 8.1073L37.6242 7.35663L36.1604 0ZM23.2675 2.5523L19.5704 3.28421L24.7313 9.90893L28.4096 9.17702L23.2675 2.5523ZM14.0717 4.35392L10.3746 5.12337L15.5355 11.7481L19.2139 11.0162L14.0717 4.35392ZM4.85717 6.23061L3.01801 6.58718C2.04285 6.78202 1.18486 7.35588 0.632439 8.18276C0.0800144 9.00963 -0.121693 10.0219 0.0716069 10.9974L0.803516 14.6757L9.9993 12.8553L4.85717 6.23061ZM0.803516 14.6757V33.4426C0.803516 34.4381 1.19896 35.3928 1.90286 36.0967C2.60675 36.8006 3.56144 37.196 4.5569 37.196H34.5839C36.6671 37.196 38.3373 35.5258 38.3373 33.4426V14.6757H0.803516Z" fill="#DCEDDD"/>
</svg>
