<svg width="30" height="31" viewBox="0 0 30 31" fill="none" xmlns="http://www.w3.org/2000/svg">
<path d="M29.0625 6.89063C28.0075 7.34904 26.8912 7.65105 25.749 7.78712C26.9494 7.08422 27.8521 5.96753 28.2879 4.64649C27.153 5.31012 25.9134 5.77575 24.6223 6.02345C24.0786 5.45364 23.4247 5.00034 22.7004 4.69111C21.976 4.38188 21.1964 4.22316 20.4088 4.22462C17.2201 4.22462 14.6396 6.76759 14.6396 9.90235C14.6374 10.3384 14.6874 10.7731 14.7885 11.1973C12.502 11.0901 10.263 10.5068 8.21483 9.48473C6.16666 8.46266 4.35439 7.02432 2.89395 5.26173C2.38159 6.12547 2.11062 7.11097 2.10938 8.11524C2.10938 10.084 3.13652 11.8242 4.6875 12.8438C3.76859 12.822 2.86851 12.5787 2.06367 12.1348V12.2051C2.06367 14.959 4.05586 17.25 6.69258 17.7715C6.19675 17.9037 5.6858 17.9706 5.17266 17.9707C4.80854 17.9713 4.44526 17.936 4.08809 17.8652C4.82109 20.1211 6.95449 21.7617 9.48164 21.8086C7.42815 23.3912 4.907 24.2465 2.31445 24.2402C1.85427 24.2396 1.39451 24.2122 0.9375 24.1582C3.57491 25.8423 6.64069 26.7331 9.76992 26.7246C20.3965 26.7246 26.202 18.0703 26.202 10.5645C26.202 10.3184 26.1955 10.0723 26.1838 9.83204C27.3106 9.03051 28.2854 8.03445 29.0625 6.89063Z" fill="#DCEDDD"/>
</svg>
